<svg width="134" height="31" viewBox="0 0 121 31" fill="none" xmlns="http://www.w3.org/2000/svg">
  <!-- TikTok Logo -->
  <g transform="translate(0, 0)">
    <path d="M10.4 11.9999V10.7999C10 10.6999 9.6 10.7 9.2 10.7C4.1 10.7 0 14.7999 0 19.8999C0 22.9999 1.6 25.7999 3.9 27.3999L3.8 27.2999C2.3 25.6999 1.5 23.5 1.5 21.2C1.5 16.1 5.5 12.0999 10.4 11.9999Z" fill="#25F4EE"/>
    <path d="M10.6002 25.4C12.9002 25.4 14.7002 23.6 14.8002 21.3V1.3H18.4002C18.3002 0.900003 18.3002 0.5 18.3002 0H13.3002V20C13.2002 22.2 11.4002 24 9.1002 24C8.4002 24 7.7002 23.8 7.2002 23.5C8.0002 24.6 9.2002 25.4 10.6002 25.4Z" fill="#25F4EE"/>
    <path d="M25.3 8.10005V6.90005C23.9 6.90005 22.6 6.50005 21.5 5.80005C22.5 6.90005 23.8 7.80005 25.3 8.10005Z" fill="#25F4EE"/>
    <path d="M21.4999 5.79995C20.3999 4.59995 19.7999 2.99995 19.7999 1.19995H18.3999C18.7999 3.19995 19.9999 4.79995 21.4999 5.79995Z" fill="#FE2C55"/>
    <path d="M9.2 15.5999C6.9 15.5999 5 17.4999 5 19.7999C5 21.3999 6 22.7999 7.3 23.4999C6.8 22.7999 6.5 21.9999 6.5 21.0999C6.5 18.7999 8.4 16.8999 10.7 16.8999C11.1 16.8999 11.5 16.9999 11.9 17.0999V11.9999C11.5 11.8999 11.1 11.8999 10.7 11.8999C10.6 11.8999 10.6 11.8999 10.5 11.8999V15.6999C10 15.6999 9.6 15.5999 9.2 15.5999Z" fill="#FE2C55"/>
    <path d="M25.2999 8.1001V11.9001C22.6999 11.9001 20.2999 11.1001 18.3999 9.7001V19.9001C18.3999 25.0001 14.2999 29.1001 9.1999 29.1001C7.1999 29.1001 5.3999 28.5001 3.8999 27.5001C5.5999 29.3001 7.9999 30.4001 10.5999 30.4001C15.6999 30.4001 19.7999 26.3001 19.7999 21.2001V11.0001C21.7999 12.4001 24.1999 13.2001 26.6999 13.2001V8.2001C26.2999 8.2001 25.7999 8.2001 25.2999 8.1001Z" fill="#FE2C55"/>
    <path d="M18.3999 19.8999V9.69995C20.3999 11.1 22.7999 11.8999 25.2999 11.8999V7.99995C23.7999 7.69995 22.4999 6.89995 21.4999 5.79995C19.8999 4.79995 18.7999 3.09995 18.4999 1.19995H14.7999V21.2C14.6999 23.4 12.8999 25.2 10.5999 25.2C9.1999 25.2 7.9999 24.4999 7.1999 23.4999C5.8999 22.8999 4.9999 21.4999 4.9999 19.8999C4.9999 17.5999 6.8999 15.7 9.1999 15.7C9.5999 15.7 9.9999 15.7999 10.3999 15.8999V11.9999C5.3999 12.0999 1.3999 16.2 1.3999 21.2C1.3999 23.6 2.2999 25.7999 3.8999 27.4999C5.3999 28.4999 7.1999 29.2 9.1999 29.2C14.2999 29.1 18.3999 24.8999 18.3999 19.8999Z" fill="white"/>
  </g>
  <!-- Text -->
  <g transform="translate(35, 5)">
    <path d="M0.700195 0.100098H16.3002L14.9002 4.6001H10.9002V21.1001H5.9002V4.50009H0.800194L0.700195 0.100098Z" fill="white"/>
    <path d="M41.9004 0.100098H57.9004L56.5004 4.6001H52.1004V21.1001H47.0004V4.50009H41.9004V0.100098Z" fill="white"/>
    <path d="M17.3003 6.80005H22.3003V21H17.3003V6.80005Z" fill="white"/>
    <path d="M24.3003 0H29.3003V9.8L34.3003 4.9H40.3003L34.0003 11L41.0003 21H35.5003L30.8003 14L29.3003 15.4V20.9H24.3003V0Z" fill="white"/>
    <path d="M77.2002 0H82.2002V9.8L87.2002 4.9H93.2002L86.9002 11L93.9002 21H88.4002L83.7002 14L82.2002 15.4V20.9H77.2002V0Z" fill="white"/>
    <path d="M19.8003 5.1001C21.181 5.1001 22.3003 3.98081 22.3003 2.6001C22.3003 1.21939 21.181 0.100098 19.8003 0.100098C18.4196 0.100098 17.3003 1.21939 17.3003 2.6001C17.3003 3.98081 18.4196 5.1001 19.8003 5.1001Z" fill="white"/>
    <path d="M57.2003 12.5C57.2003 8 60.7003 4.3 65.1003 4C64.9003 4 64.6003 4 64.4003 4C59.7003 4 55.8003 7.80001 55.8003 12.6C55.8003 17.3 59.6003 21.2 64.4003 21.2C64.6003 21.2 64.9003 21.2 65.1003 21.2C60.7003 20.7 57.2003 17 57.2003 12.5Z" fill="#25F4EE"/>
    <path d="M67.0002 3.8999C66.8002 3.8999 66.5002 3.8999 66.2002 3.8999C70.6002 4.1999 74.1002 7.8999 74.1002 12.3999C74.1002 16.8999 70.6002 20.5999 66.2002 20.8999C66.4002 20.8999 66.7002 20.8999 67.0002 20.8999C71.7002 20.8999 75.6002 17.0999 75.6002 12.2999C75.6002 7.7999 71.8002 3.8999 67.0002 3.8999Z" fill="#FE2C55"/>
    <path d="M65.7001 3.8999C61.0001 3.8999 57.1001 7.6999 57.1001 12.4999C57.1001 17.1999 60.9001 21.0999 65.7001 21.0999C70.5001 21.0999 74.3001 17.2999 74.3001 12.4999C74.3001 7.7999 70.4001 3.8999 65.7001 3.8999ZM65.7001 16.6999C63.4001 16.6999 61.5001 14.7999 61.5001 12.4999C61.5001 10.1999 63.4001 8.2999 65.7001 8.2999C68.0001 8.2999 69.9001 10.1999 69.9001 12.4999C69.9001 14.7999 68.0001 16.6999 65.7001 16.6999Z" fill="white"/>
  </g>

 
</svg>
