<svg width="524" height="972" viewBox="0 0 524 972" fill="none" xmlns="http://www.w3.org/2000/svg">
<rect width="524" height="970" rx="92" fill="white"/>
<path d="M0 93C0 42.7421 30.1442 1 71.946 1C113.748 1 14.5556 42.7421 14.5556 93V888C14.5556 938.258 110.421 971.608 68.619 971.608C26.8172 971.608 0 931.258 0 881V93Z" fill="#24F4EE"/>
<path d="M523.883 878.608C523.883 928.866 493.739 970.608 451.937 970.608C410.135 970.608 509.327 928.866 509.327 878.608L509.327 83.6083C509.327 33.3503 413.462 0 455.264 0C497.066 0 523.883 40.3503 523.883 90.6083L523.883 878.608Z" fill="#FD375D"/>
</svg>
